<?xml version="1.0" encoding="utf-8"?>
<!-- Generator: Adobe Illustrator 21.1.0, SVG Export Plug-In . SVG Version: 6.00 Build 0)  -->
<svg version="1.1" id="Camada_1" xmlns="http://www.w3.org/2000/svg" xmlns:xlink="http://www.w3.org/1999/xlink" x="0px" y="0px"
	 viewBox="0 0 50 50" style="enable-background:new 0 0 50 50;" xml:space="preserve">
<style type="text/css">
	.st0{fill:#020202;}
	.st1{fill:#1F2635;}
	.st2{fill:#229ED1;}
</style>
<g>
	
		<rect x="9.1" y="6.7" transform="matrix(0.6957 0.7183 -0.7183 0.6957 21.3062 -10.0825)" class="st0" width="26.9" height="26.9"/>
	<g>
		
			<rect x="7" y="15.1" transform="matrix(0.7183 -0.6957 0.6957 0.7183 -14.0887 22.2869)" class="st1" width="26.9" height="26.9"/>
	</g>
	<path class="st2" d="M31.5,31.9c0-0.2-0.1-0.5-0.3-0.6L30,30.7c0-0.2,0.1-0.4,0.1-0.6c0.1-0.5,0.1-1,0.1-1.4l1.3-0.4
		c0.2-0.1,0.3-0.2,0.4-0.3c0.1-0.2,0.1-0.4,0.1-0.5l-0.6-2c-0.1-0.4-0.5-0.6-0.8-0.5l-1.4,0.4c0,0,0-0.1-0.1-0.1
		c-0.1-0.2-0.3-0.5-0.5-0.7c-0.1-0.1-0.2-0.2-0.3-0.3l-0.1,0.1c-0.2-0.2-0.4-0.4-0.6-0.5l0.7-1.2c0.2-0.3,0-0.7-0.3-0.9l-1.8-1
		c-0.3-0.2-0.8-0.1-0.9,0.2l-0.7,1.3c-0.2,0-0.4-0.1-0.6-0.1C23.5,22,23,22,22.6,22c0,0,0,0,0,0l-0.4-1.4c-0.1-0.3-0.5-0.5-0.9-0.4
		l-2,0.6c-0.4,0.1-0.6,0.5-0.5,0.8l0.4,1.4c-0.2,0.1-0.5,0.3-0.7,0.5c-0.3,0.2-0.6,0.5-0.8,0.7l-0.1-0.1c0,0,0,0,0,0l-0.9-0.5l0,0
		l-0.3-0.2c-0.3-0.2-0.7,0-0.9,0.3l-1,1.8c-0.1,0.2-0.1,0.4-0.1,0.6c0,0.2,0.1,0.4,0.3,0.5l1.2,0.7c0,0.2-0.1,0.4-0.1,0.6
		c-0.1,0.5-0.1,1-0.1,1.5l-1.3,0.4c-0.3,0.1-0.5,0.5-0.4,0.9l0.6,2c0.1,0.4,0.5,0.6,0.8,0.5l1.4-0.4c0,0,0,0,0,0
		c0.1,0.2,0.2,0.3,0.4,0.5c0.3,0.4,0.6,0.7,1,1.1l-0.6,1.2c-0.2,0.3,0,0.7,0.3,0.9l1.8,1c0.3,0.2,0.8,0.1,0.9-0.2l0.7-1.2
		c0.6,0.2,1.3,0.2,2,0.2l0,0.1c0,0,0,0,0,0l0.3,1l0,0l0.1,0.3c0.1,0.3,0.5,0.5,0.9,0.4l2-0.6c0.2-0.1,0.4-0.2,0.5-0.4
		c0.2-0.2,0.2-0.4,0.2-0.6l-0.4-1.3c0.2-0.1,0.3-0.2,0.5-0.3c0.4-0.3,0.8-0.6,1.1-1l1.2,0.6c0.3,0.2,0.7,0,0.9-0.3l1-1.8
		C31.5,32.2,31.6,32.1,31.5,31.9z M19.4,31.7c-0.1-0.2-0.2-0.3-0.3-0.5c0,0,0,0,0,0c-0.4-0.6-0.6-1.4-0.6-2.1l0,0c0-0.2,0-0.4,0-0.6
		c0-0.2,0.1-0.4,0.1-0.6c0,0,0,0,0-0.1c0.3-0.9,0.8-1.7,1.6-2.3c0.7-0.6,1.6-0.8,2.4-0.9c0.3,0,0.5,0,0.8,0c2.3,0.3,3.9,2.2,4,4.4
		c0,0.2,0,0.4,0,0.6c-0.1,0.9-0.5,1.7-1.1,2.4c-0.2,0.2-0.4,0.4-0.6,0.5C23.8,34.1,20.9,33.7,19.4,31.7z"/>
	<path class="st2" d="M48.7,29.7c0-0.2-0.1-0.4-0.3-0.5l-1-0.5c0-0.2,0.1-0.3,0.1-0.5c0.1-0.4,0.1-0.8,0-1.2l1-0.3
		c0.1,0,0.2-0.1,0.3-0.3c0.1-0.1,0.1-0.3,0-0.4l-0.5-1.6c-0.1-0.3-0.4-0.5-0.7-0.4l-1.1,0.3c0,0,0,0,0-0.1c-0.1-0.2-0.2-0.4-0.4-0.5
		c-0.1-0.1-0.2-0.2-0.2-0.3l-0.1,0c-0.1-0.2-0.3-0.3-0.4-0.4l0.5-1c0.1-0.3,0-0.6-0.3-0.7l-1.4-0.8c-0.3-0.1-0.6-0.1-0.7,0.2l-0.6,1
		c-0.2,0-0.3-0.1-0.5-0.1c-0.4-0.1-0.8-0.1-1.2,0c0,0,0,0,0,0l-0.3-1.1c-0.1-0.3-0.4-0.4-0.7-0.3l-1.6,0.5c-0.3,0.1-0.5,0.4-0.4,0.7
		l0.3,1.1c-0.2,0.1-0.4,0.2-0.5,0.4c-0.2,0.2-0.4,0.4-0.6,0.6l-0.1,0c0,0,0,0,0,0l-0.8-0.4l0,0L36.6,23c-0.3-0.1-0.6,0-0.7,0.2
		l-0.8,1.4C35,24.8,35,25,35,25.1c0,0.2,0.1,0.3,0.3,0.4l1,0.5c0,0.2-0.1,0.3-0.1,0.5c-0.1,0.4-0.1,0.8,0,1.2L35,28.1
		c-0.3,0.1-0.4,0.4-0.3,0.7l0.5,1.6c0.1,0.3,0.4,0.5,0.7,0.4l1.1-0.3c0,0,0,0,0,0c0.1,0.1,0.2,0.3,0.3,0.4c0.2,0.3,0.5,0.6,0.8,0.8
		l-0.5,1c-0.1,0.3,0,0.6,0.3,0.7l1.4,0.8c0.3,0.1,0.6,0.1,0.7-0.2l0.5-1c0.5,0.1,1.1,0.2,1.6,0.1l0,0.1c0,0,0,0,0,0l0.2,0.8l0,0
		l0.1,0.3c0.1,0.3,0.4,0.4,0.7,0.3l1.6-0.5c0.2-0.1,0.3-0.2,0.4-0.3c0.1-0.1,0.2-0.3,0.1-0.5l-0.3-1c0.1-0.1,0.3-0.2,0.4-0.3
		c0.3-0.2,0.6-0.5,0.9-0.8l1,0.5c0.3,0.1,0.6,0,0.7-0.3l0.8-1.4C48.7,30,48.7,29.8,48.7,29.7z M39,29.6c-0.1-0.1-0.2-0.3-0.3-0.4
		c0,0,0,0,0,0c-0.3-0.5-0.4-1.1-0.5-1.7l0,0c0-0.2,0-0.3,0-0.5c0-0.2,0.1-0.3,0.1-0.5c0,0,0,0,0,0c0.2-0.7,0.7-1.4,1.3-1.8
		c0.6-0.4,1.3-0.7,2-0.7c0.2,0,0.4,0,0.6,0c1.8,0.2,3.1,1.7,3.2,3.5c0,0.2,0,0.3,0,0.5c-0.1,0.7-0.4,1.4-0.9,1.9
		c-0.1,0.1-0.3,0.3-0.5,0.4C42.5,31.4,40.2,31.1,39,29.6z"/>
	<path class="st2" d="M38.2,15.4c0-0.1-0.1-0.3-0.2-0.4l-0.8-0.4c0-0.1,0.1-0.2,0.1-0.4c0-0.3,0.1-0.6,0-0.9l0.8-0.3
		c0.1,0,0.2-0.1,0.2-0.2c0.1-0.1,0.1-0.2,0-0.3l-0.4-1.2c-0.1-0.2-0.3-0.4-0.5-0.3l-0.9,0.3c0,0,0,0,0-0.1c-0.1-0.1-0.2-0.3-0.3-0.4
		c-0.1-0.1-0.1-0.1-0.2-0.2l0,0c-0.1-0.1-0.2-0.2-0.4-0.3l0.4-0.8c0.1-0.2,0-0.5-0.2-0.6l-1.1-0.6c-0.2-0.1-0.5,0-0.6,0.2l-0.4,0.8
		c-0.1,0-0.2,0-0.4-0.1c-0.3,0-0.6-0.1-0.9,0c0,0,0,0,0,0l-0.3-0.9C32.2,8.1,32,8,31.7,8l-1.2,0.4c-0.2,0.1-0.4,0.3-0.3,0.5l0.3,0.9
		c-0.1,0.1-0.3,0.2-0.4,0.3c-0.2,0.1-0.3,0.3-0.5,0.5l-0.1,0c0,0,0,0,0,0l-0.6-0.3l0,0l-0.2-0.1c-0.2-0.1-0.5,0-0.6,0.2l-0.6,1.1
		c-0.1,0.1-0.1,0.2,0,0.4c0,0.1,0.1,0.3,0.2,0.3l0.8,0.4c0,0.1-0.1,0.3-0.1,0.4c0,0.3-0.1,0.6,0,0.9l-0.8,0.3
		c-0.2,0.1-0.3,0.3-0.3,0.5l0.4,1.2c0.1,0.2,0.3,0.4,0.5,0.3l0.9-0.3c0,0,0,0,0,0c0.1,0.1,0.1,0.2,0.2,0.3c0.2,0.2,0.4,0.5,0.6,0.7
		l-0.4,0.8c-0.1,0.2,0,0.5,0.2,0.6l1.1,0.6c0.2,0.1,0.5,0,0.6-0.2l0.4-0.8c0.4,0.1,0.8,0.1,1.3,0.1l0,0.1c0,0,0,0,0,0l0.2,0.7l0,0
		l0.1,0.2c0.1,0.2,0.3,0.3,0.5,0.3l1.2-0.4c0.1,0,0.2-0.1,0.3-0.3c0.1-0.1,0.1-0.3,0.1-0.4l-0.2-0.8c0.1-0.1,0.2-0.1,0.3-0.2
		c0.3-0.2,0.5-0.4,0.7-0.6L37,17c0.2,0.1,0.5,0,0.6-0.2l0.6-1.1C38.2,15.6,38.2,15.5,38.2,15.4z M30.6,15.3
		c-0.1-0.1-0.1-0.2-0.2-0.3c0,0,0,0,0,0c-0.2-0.4-0.4-0.9-0.4-1.3l0,0c0-0.1,0-0.2,0-0.4c0-0.1,0-0.3,0.1-0.4c0,0,0,0,0,0
		c0.2-0.6,0.5-1.1,1-1.4c0.5-0.3,1-0.5,1.5-0.6c0.2,0,0.3,0,0.5,0c1.4,0.2,2.5,1.4,2.5,2.7c0,0.1,0,0.3,0,0.4
		c-0.1,0.6-0.3,1.1-0.7,1.5c-0.1,0.1-0.2,0.2-0.4,0.3C33.3,16.8,31.5,16.5,30.6,15.3z"/>
</g>
</svg>
