<?xml version="1.0" encoding="utf-8"?>
<!-- Generator: Adobe Illustrator 21.1.0, SVG Export Plug-In . SVG Version: 6.00 Build 0)  -->
<svg version="1.1" id="Camada_1" xmlns="http://www.w3.org/2000/svg" xmlns:xlink="http://www.w3.org/1999/xlink" x="0px" y="0px"
	 viewBox="0 0 137 56" style="enable-background:new 0 0 137 56;" xml:space="preserve">
<style type="text/css">
	.st0{fill:#020202;}
	.st1{fill:#1F2635;}
	.st2{fill:#229ED1;}
	.st3{fill:#4D99CE;}
	.st4{font-family:'MyriadPro-Regular';}
	.st5{font-size:12.5px;}
	.st6{fill:#CF4C51;}
</style>
<g>
	<g>
		
			<rect x="17" y="15.5" transform="matrix(0.6957 0.7183 -0.7183 0.6957 27.5227 -12.0365)" class="st0" width="21.9" height="21.9"/>
		<g>
			
				<rect x="15.3" y="22.4" transform="matrix(0.7183 -0.6957 0.6957 0.7183 -15.7806 27.6701)" class="st1" width="21.9" height="21.9"/>
		</g>
		<path class="st2" d="M35.3,36.1c0-0.2-0.1-0.4-0.3-0.5l-1-0.5c0-0.2,0.1-0.3,0.1-0.5c0.1-0.4,0.1-0.8,0-1.2l1.1-0.3
			c0.1,0,0.3-0.1,0.3-0.3c0.1-0.1,0.1-0.3,0-0.4l-0.5-1.6c-0.1-0.3-0.4-0.5-0.7-0.4l-1.1,0.3c0,0,0,0,0-0.1
			c-0.1-0.2-0.2-0.4-0.4-0.6c-0.1-0.1-0.2-0.2-0.2-0.3l-0.1,0c-0.1-0.2-0.3-0.3-0.5-0.4l0.5-1c0.1-0.3,0-0.6-0.3-0.7l-1.5-0.8
			c-0.3-0.1-0.6-0.1-0.8,0.2l-0.6,1.1c-0.2,0-0.3-0.1-0.5-0.1C28.8,28,28.4,28,28,28c0,0,0,0,0,0l-0.3-1.1c-0.1-0.3-0.4-0.4-0.7-0.3
			L25.3,27c-0.3,0.1-0.5,0.4-0.4,0.7l0.3,1.1c-0.2,0.1-0.4,0.2-0.6,0.4c-0.2,0.2-0.5,0.4-0.7,0.6l-0.1,0c0,0,0,0,0,0l-0.8-0.4l0,0
			l-0.3-0.1c-0.3-0.1-0.6,0-0.7,0.2l-0.8,1.5c-0.1,0.2-0.1,0.3,0,0.5c0,0.2,0.1,0.3,0.3,0.4l1,0.5c0,0.2-0.1,0.3-0.1,0.5
			c-0.1,0.4-0.1,0.8,0,1.2l-1.1,0.3c-0.3,0.1-0.4,0.4-0.3,0.7l0.5,1.6c0.1,0.3,0.4,0.5,0.7,0.4l1.1-0.3c0,0,0,0,0,0
			c0.1,0.1,0.2,0.3,0.3,0.4c0.2,0.3,0.5,0.6,0.8,0.9l-0.5,1c-0.1,0.3,0,0.6,0.3,0.7l1.5,0.8c0.3,0.1,0.6,0.1,0.8-0.2l0.5-1
			c0.5,0.1,1.1,0.2,1.6,0.1l0,0.1c0,0,0,0,0,0l0.2,0.8l0,0l0.1,0.3c0.1,0.3,0.4,0.4,0.7,0.3l1.6-0.5c0.2-0.1,0.3-0.2,0.4-0.3
			c0.1-0.1,0.2-0.3,0.1-0.5l-0.3-1c0.1-0.1,0.3-0.2,0.4-0.3c0.3-0.2,0.6-0.5,0.9-0.8l1,0.5c0.3,0.1,0.6,0,0.7-0.3l0.8-1.5
			C35.3,36.3,35.3,36.2,35.3,36.1z M25.4,35.9c-0.1-0.1-0.2-0.3-0.3-0.4c0,0,0,0,0,0c-0.3-0.5-0.5-1.1-0.5-1.7l0,0
			c0-0.2,0-0.3,0-0.5c0-0.2,0.1-0.3,0.1-0.5c0,0,0,0,0,0c0.2-0.7,0.7-1.4,1.3-1.9c0.6-0.5,1.3-0.7,2-0.7c0.2,0,0.4,0,0.6,0
			c1.8,0.2,3.2,1.8,3.2,3.5c0,0.2,0,0.3,0,0.5c-0.1,0.7-0.4,1.4-0.9,1.9c-0.1,0.2-0.3,0.3-0.5,0.4C29,37.8,26.6,37.5,25.4,35.9z"/>
		<path class="st2" d="M49.2,34.3c0-0.2-0.1-0.3-0.2-0.4l-0.8-0.4c0-0.1,0.1-0.2,0.1-0.4c0-0.3,0.1-0.6,0-0.9l0.9-0.3
			c0.1,0,0.2-0.1,0.3-0.2c0.1-0.1,0.1-0.2,0-0.4L49.1,30c-0.1-0.2-0.3-0.4-0.5-0.3L47.6,30c0,0,0,0,0-0.1c-0.1-0.2-0.2-0.3-0.3-0.4
			c-0.1-0.1-0.1-0.1-0.2-0.2l0,0c-0.1-0.1-0.2-0.2-0.4-0.4l0.4-0.8c0.1-0.2,0-0.5-0.2-0.6l-1.2-0.6c-0.2-0.1-0.5,0-0.6,0.2l-0.4,0.8
			c-0.1,0-0.3-0.1-0.4-0.1c-0.3,0-0.6-0.1-0.9,0c0,0,0,0,0,0l-0.3-0.9c-0.1-0.2-0.3-0.3-0.6-0.3L41.2,27c-0.2,0.1-0.4,0.3-0.3,0.5
			l0.3,0.9c-0.2,0.1-0.3,0.2-0.4,0.3c-0.2,0.1-0.4,0.3-0.5,0.5l-0.1,0c0,0,0,0,0,0l-0.6-0.3l0,0l-0.2-0.1c-0.2-0.1-0.5,0-0.6,0.2
			l-0.6,1.2c-0.1,0.1-0.1,0.3,0,0.4c0,0.1,0.1,0.3,0.2,0.3l0.8,0.4c0,0.1-0.1,0.3-0.1,0.4c0,0.3-0.1,0.6,0,1l-0.9,0.3
			c-0.2,0.1-0.3,0.3-0.3,0.6l0.4,1.3c0.1,0.2,0.3,0.4,0.5,0.3l0.9-0.3c0,0,0,0,0,0c0.1,0.1,0.1,0.2,0.2,0.3c0.2,0.3,0.4,0.5,0.6,0.7
			l-0.4,0.8c-0.1,0.2,0,0.5,0.2,0.6l1.2,0.6c0.2,0.1,0.5,0,0.6-0.2l0.4-0.8c0.4,0.1,0.9,0.1,1.3,0.1l0,0.1c0,0,0,0,0,0l0.2,0.7l0,0
			l0.1,0.2c0.1,0.2,0.3,0.3,0.6,0.3l1.3-0.4c0.1,0,0.3-0.1,0.3-0.3c0.1-0.1,0.1-0.3,0.1-0.4l-0.3-0.8c0.1-0.1,0.2-0.1,0.3-0.2
			c0.3-0.2,0.5-0.4,0.7-0.7L48,36c0.2,0.1,0.5,0,0.6-0.2l0.6-1.2C49.2,34.5,49.2,34.4,49.2,34.3z M41.3,34.1
			c-0.1-0.1-0.2-0.2-0.2-0.3c0,0,0,0,0,0c-0.2-0.4-0.4-0.9-0.4-1.4l0,0c0-0.1,0-0.3,0-0.4c0-0.1,0-0.3,0.1-0.4c0,0,0,0,0,0
			c0.2-0.6,0.5-1.1,1-1.5c0.5-0.4,1-0.6,1.6-0.6c0.2,0,0.3,0,0.5,0c1.5,0.2,2.5,1.4,2.6,2.8c0,0.1,0,0.3,0,0.4
			c-0.1,0.6-0.3,1.1-0.7,1.5c-0.1,0.1-0.2,0.2-0.4,0.3C44.2,35.7,42.3,35.4,41.3,34.1z"/>
		<path class="st2" d="M40.7,22.6c0-0.1-0.1-0.2-0.2-0.3L39.9,22c0-0.1,0-0.2,0.1-0.3c0-0.2,0-0.5,0-0.7l0.7-0.2
			c0.1,0,0.2-0.1,0.2-0.2c0-0.1,0.1-0.2,0-0.3l-0.3-1c-0.1-0.2-0.2-0.3-0.4-0.3l-0.7,0.2c0,0,0,0,0,0c-0.1-0.1-0.2-0.2-0.2-0.4
			c0-0.1-0.1-0.1-0.1-0.2l0,0c-0.1-0.1-0.2-0.2-0.3-0.3l0.3-0.6c0.1-0.2,0-0.4-0.2-0.5L38,16.9c-0.2-0.1-0.4,0-0.5,0.1l-0.4,0.7
			c-0.1,0-0.2,0-0.3-0.1c-0.3,0-0.5,0-0.7,0c0,0,0,0,0,0l-0.2-0.7c-0.1-0.2-0.3-0.3-0.4-0.2l-1,0.3c-0.2,0.1-0.3,0.2-0.2,0.4
			l0.2,0.7c-0.1,0.1-0.2,0.2-0.3,0.2c-0.1,0.1-0.3,0.2-0.4,0.4l-0.1,0c0,0,0,0,0,0l-0.5-0.3l0,0l-0.2-0.1c-0.2-0.1-0.4,0-0.5,0.2
			L32,19.4c-0.1,0.1-0.1,0.2,0,0.3c0,0.1,0.1,0.2,0.2,0.3l0.6,0.3c0,0.1,0,0.2-0.1,0.3c0,0.3,0,0.5,0,0.8L32,21.6
			c-0.2,0.1-0.3,0.3-0.2,0.4l0.3,1c0.1,0.2,0.2,0.3,0.4,0.2l0.7-0.2c0,0,0,0,0,0c0.1,0.1,0.1,0.2,0.2,0.3c0.2,0.2,0.3,0.4,0.5,0.5
			l-0.3,0.6c-0.1,0.2,0,0.4,0.2,0.5l0.9,0.5c0.2,0.1,0.4,0,0.5-0.1l0.3-0.6c0.3,0.1,0.7,0.1,1,0.1l0,0.1c0,0,0,0,0,0l0.2,0.5l0,0
			l0.1,0.2c0.1,0.2,0.2,0.3,0.4,0.2l1-0.3c0.1,0,0.2-0.1,0.2-0.2c0.1-0.1,0.1-0.2,0.1-0.3l-0.2-0.7c0.1-0.1,0.2-0.1,0.3-0.2
			c0.2-0.2,0.4-0.3,0.6-0.5l0.6,0.3c0.2,0.1,0.4,0,0.5-0.2l0.5-0.9C40.7,22.8,40.7,22.7,40.7,22.6z M34.5,22.5
			c-0.1-0.1-0.1-0.2-0.2-0.3c0,0,0,0,0,0C34.1,22,34,21.6,34,21.2l0,0c0-0.1,0-0.2,0-0.3c0-0.1,0-0.2,0.1-0.3c0,0,0,0,0,0
			c0.1-0.5,0.4-0.9,0.8-1.2c0.4-0.3,0.8-0.4,1.3-0.5c0.1,0,0.3,0,0.4,0c1.2,0.1,2,1.1,2,2.2c0,0.1,0,0.2,0,0.3
			c-0.1,0.5-0.3,0.9-0.6,1.2c-0.1,0.1-0.2,0.2-0.3,0.3C36.7,23.7,35.3,23.6,34.5,22.5z"/>
	</g>
	<g>
		<text transform="matrix(1 0 0 1 55 33.5)">
		<tspan 
			x="0" y="0"
		 	class="st3 st4 st5" 
			style="
					font-family:Lato, sans-serif; 
					font-weight: bold;
					letter-spacing: 0.1em;
			">INNER</tspan>
		<tspan 
			x="43.6" y="0" 
			class="st6 st4 st5"
			style="
					font-family:Lato, sans-serif; 
					font-weight: bold;
					letter-spacing: 0.1em;
			">TOOLS</tspan></text>
	</g>
</g>
</svg>
